<?xml version="1.0" standalone="no"?><!DOCTYPE svg PUBLIC "-//W3C//DTD SVG 1.1//EN" "http://www.w3.org/Graphics/SVG/1.1/DTD/svg11.dtd"><svg t="1668855408579" class="icon" viewBox="0 0 1024 1024" version="1.1" xmlns="http://www.w3.org/2000/svg" p-id="13023" xmlns:xlink="http://www.w3.org/1999/xlink" width="200" height="200"><path d="M725.333333 832H298.666667c-59.733333 0-106.666667-46.933333-106.666667-106.666667V298.666667c0-59.733333 46.933333-106.666667 106.666667-106.666667h426.666666c59.733333 0 106.666667 46.933333 106.666667 106.666667v426.666666c0 59.733333-46.933333 106.666667-106.666667 106.666667zM298.666667 234.666667c-36.266667 0-64 27.733333-64 64v426.666666c0 36.266667 27.733333 64 64 64h426.666666c36.266667 0 64-27.733333 64-64V298.666667c0-36.266667-27.733333-64-64-64H298.666667z" fill="#a259ff" p-id="13024"></path><path d="M512 603.733333c-98.133333 0-177.066667-85.333333-177.066667-189.866666 0-12.8 8.533333-21.333333 21.333334-21.333334s21.333333 8.533333 21.333333 21.333334c0 81.066667 59.733333 147.2 134.4 147.2s134.4-66.133333 134.4-147.2c0-12.8 8.533333-21.333333 21.333333-21.333334s21.333333 8.533333 21.333334 21.333334c0 104.533333-78.933333 189.866667-177.066667 189.866666z" fill="#a259ff" p-id="13025"></path><path d="M352 337.066667m-21.333333 0a21.333333 21.333333 0 1 0 42.666666 0 21.333333 21.333333 0 1 0-42.666666 0Z" fill="#a259ff" p-id="13026"></path><path d="M672 337.066667m-21.333333 0a21.333333 21.333333 0 1 0 42.666666 0 21.333333 21.333333 0 1 0-42.666666 0Z" fill="#a259ff" p-id="13027"></path></svg>